<?xml version="1.0" encoding="UTF-8"?>
<svg width="512px" height="512px" viewBox="0 0 512 512" version="1.1" xmlns="http://www.w3.org/2000/svg" xmlns:xlink="http://www.w3.org/1999/xlink">
    <title>syx-icon</title>
    <defs>
        <linearGradient x1="-9.20749032%" y1="81.7139705%" x2="87.5663389%" y2="39.7513066%" id="linearGradient-1">
            <stop stop-color="#91257C" offset="0%"></stop>
            <stop stop-color="#98247B" offset="11%"></stop>
            <stop stop-color="#AC2177" offset="27%"></stop>
            <stop stop-color="#CD1D71" offset="46%"></stop>
            <stop stop-color="#ED186B" offset="62%"></stop>
            <stop stop-color="#EE2669" offset="70%"></stop>
            <stop stop-color="#F04B65" offset="85%"></stop>
            <stop stop-color="#F3765F" offset="100%"></stop>
        </linearGradient>
        <linearGradient x1="-39.629257%" y1="104.392007%" x2="91.1756391%" y2="26.5532926%" id="linearGradient-2">
            <stop stop-color="#FF3A33" offset="0%"></stop>
            <stop stop-color="#FC06C6" offset="100%"></stop>
        </linearGradient>
        <path d="M335,143.547981 C335.024866,152.427628 331.515554,160.950808 325.249222,167.229691 C318.982889,173.508575 310.476747,177.024916 301.61485,177 L23,177 L61.6053338,110.064773 L116.121692,15.4097173 C125.74775,0.372351308 145.460236,-4.4441723 160.914043,4.46521174 C176.36785,13.3745958 182.119229,32.8714727 173.982803,48.7676374 L138.722223,110.064773 L301.61485,110.064773 C310.474526,110.064769 318.970876,113.593453 325.232681,119.873675 C331.494485,126.153897 335.008163,134.670564 335,143.547981 Z" id="path-3"></path>
        <linearGradient x1="106.241232%" y1="57.1322722%" x2="-10.388653%" y2="26.2174088%" id="linearGradient-4">
            <stop stop-color="#2E76BC" offset="0%"></stop>
            <stop stop-color="#683B96" offset="100%"></stop>
        </linearGradient>
        <linearGradient x1="0%" y1="79.9330945%" x2="71.1639852%" y2="33.5423858%" id="linearGradient-5">
            <stop stop-color="#42D9FE" offset="0%"></stop>
            <stop stop-color="#2872FA" offset="100%"></stop>
        </linearGradient>
        <path d="M0,226.624318 C-0.024782915,217.715258 3.48449581,209.162522 9.75333799,202.854019 C16.0221802,196.545517 24.5351307,193 33.413061,193 L312,193 L273.398534,260.154538 L218.793868,354.942495 C211.30477,368.263343 195.782009,374.810312 181.058546,370.85796 C166.335083,366.905609 156.142772,353.455711 156.281372,338.161702 C156.275206,332.276838 157.828584,326.496173 160.782272,321.412274 L196.28937,260.154538 L33.413061,260.154538 C14.9596097,260.154538 0,245.142547 0,226.624318 L0,226.624318 Z" id="path-6"></path>
    </defs>
    <g id="syx-icon" stroke="none" stroke-width="1" fill="none" fill-rule="evenodd">
        <g id="SYX_Logo" transform="translate(87.000000, 69.000000)" fill-rule="nonzero">
            <g id="Path">
                <use fill="url(#linearGradient-1)" xlink:href="#path-3"></use>
                <use fill="url(#linearGradient-2)" xlink:href="#path-3"></use>
            </g>
            <g id="Path">
                <use fill="url(#linearGradient-4)" xlink:href="#path-6"></use>
                <use fill="url(#linearGradient-5)" xlink:href="#path-6"></use>
            </g>
        </g>
    </g>
</svg>